<svg xmlns="http://www.w3.org/2000/svg" viewBox="0 0 19.25 22" width="19.25" height="22"><path fill="#2be5c3" d="M2.75 3.438c-0.378 0 -0.688 0.309 -0.688 0.688v13.75c0 0.378 0.309 0.688 0.688 0.688h13.75c0.378 0 0.688 -0.309 0.688 -0.688V4.125c0 -0.378 -0.309 -0.688 -0.688 -0.688H2.75zM0 4.125c0 -1.517 1.233 -2.75 2.75 -2.75h13.75c1.517 0 2.75 1.233 2.75 2.75v13.75c0 1.517 -1.233 2.75 -2.75 2.75H2.75c-1.517 0 -2.75 -1.233 -2.75 -2.75V4.125zm8.594 10.656v-2.75h-2.75c-0.571 0 -1.031 -0.46 -1.031 -1.031s0.46 -1.031 1.031 -1.031h2.75v-2.75c0 -0.571 0.46 -1.031 1.031 -1.031s1.031 0.46 1.031 1.031v2.75h2.75c0.571 0 1.031 0.46 1.031 1.031s-0.46 1.031 -1.031 1.031h-2.75v2.75c0 0.571 -0.46 1.031 -1.031 1.031s-1.031 -0.46 -1.031 -1.031z"/></svg>