<svg xmlns="http://www.w3.org/2000/svg" viewBox="0 0 0.038 0.043" width="19.25" height="22"><path fill="#e52b2b" d="M0.014 0.004 0.013 0.007h0.012L0.023 0.004A0.001 0.001 0 0 0 0.023 0.004H0.015a0.001 0.001 0 0 0 -0.001 0zM0.027 0.002l0.003 0.005h0.006a0.002 0.002 0 1 1 0 0.004H0.035v0.026a0.007 0.007 0 0 1 -0.007 0.007H0.009A0.007 0.007 0 0 1 0.003 0.036V0.011H0.002C0.001 0.011 0 0.01 0 0.009S0.001 0.007 0.002 0.007h0.006L0.011 0.002A0.005 0.005 0 0 1 0.015 0h0.008a0.005 0.005 0 0 1 0.004 0.002zM0.007 0.011v0.026A0.003 0.003 0 0 0 0.009 0.039h0.019A0.003 0.003 0 0 0 0.031 0.036V0.011H0.007zm0.007 0.005v0.017C0.013 0.034 0.013 0.035 0.012 0.035S0.011 0.034 0.011 0.034V0.016c0 -0.001 0.001 -0.001 0.001 -0.001s0.001 0.001 0.001 0.001zm0.007 0v0.017C0.02 0.034 0.02 0.035 0.019 0.035S0.018 0.034 0.018 0.034V0.016C0.018 0.015 0.018 0.015 0.019 0.015s0.001 0.001 0.001 0.001zm0.007 0v0.017C0.027 0.034 0.026 0.035 0.026 0.035S0.024 0.034 0.024 0.034V0.016C0.024 0.015 0.025 0.015 0.026 0.015s0.001 0.001 0.001 0.001z"/></svg>