<svg xmlns="http://www.w3.org/2000/svg" viewBox="0 0 22 22" width="22" height="22"><path fill="#2b2be5" d="M18.949 2.531 19.469 3.051c0.404 0.404 0.404 1.057 0 1.457L18.219 5.762 16.238 3.781 17.488 2.531c0.404 -0.404 1.057 -0.404 1.457 0zM9.015 11.009 14.781 5.238l1.981 1.981 -5.771 5.766c-0.125 0.125 -0.279 0.215 -0.447 0.262L8.031 13.965l0.718 -2.514c0.047 -0.168 0.138 -0.322 0.262 -0.447zM16.032 1.074 7.554 9.548c-0.374 0.374 -0.645 0.834 -0.786 1.336l-1.229 4.297c-0.103 0.361 -0.004 0.748 0.262 1.014s0.653 0.365 1.014 0.262l4.297 -1.229c0.507 -0.146 0.967 -0.417 1.336 -0.786L20.926 5.968c1.207 -1.207 1.207 -3.167 0 -4.374L20.406 1.074c-1.207 -1.207 -3.167 -1.207 -4.374 0zM3.781 2.75c-2.088 0 -3.781 1.693 -3.781 3.781v11.688c0 2.088 1.693 3.781 3.781 3.781h11.688c2.088 0 3.781 -1.693 3.781 -3.781V13.406c0 -0.571 -0.46 -1.031 -1.031 -1.031s-1.031 0.46 -1.031 1.031v4.813c0 0.95 -0.769 1.719 -1.719 1.719H3.781c-0.95 0 -1.719 -0.769 -1.719 -1.719V6.531c0 -0.95 0.769 -1.719 1.719 -1.719h4.813c0.571 0 1.031 -0.46 1.031 -1.031s-0.46 -1.031 -1.031 -1.031H3.781z"/></svg>