<svg xmlns="http://www.w3.org/2000/svg" viewBox="0 0 17 17" width="17" height="17"><path fill="#721c24" d="M8.5 1.594a6.906 6.906 0 1 1 0 13.813 6.906 6.906 0 1 1 0 -13.813zm0 15.406a8.5 8.5 0 1 0 0 -17 8.5 8.5 0 1 0 0 17zm-2.689 -11.189c-0.312 0.312 -0.312 0.817 0 1.126l1.561 1.561 -1.561 1.561c-0.312 0.312 -0.312 0.817 0 1.126s0.817 0.312 1.126 0l1.561 -1.561 1.561 1.561c0.312 0.312 0.817 0.312 1.126 0s0.312 -0.817 0 -1.126l-1.561 -1.561 1.561 -1.561c0.312 -0.312 0.312 -0.817 0 -1.126s-0.817 -0.312 -1.126 0l-1.561 1.561 -1.561 -1.561c-0.312 -0.312 -0.817 -0.312 -1.126 0z"/></svg>